# xmcd CD database file
#
# Track frame offsets:
#	150
#	17250
#	31222
#	48965
#	63325
#	78152
#	96755
#	110930
#	128015
#	145555
#	159642
#	176692
#	191620
#
# Disc length: 2806 seconds
#
# Revision: 9
# Processed by: cddbd v1.5.2PL0 Copyright (c) Steve Scherf et al.
# Submitted via: CDex 1.79
#
DISCID=9f0af40d
DTITLE=Diamond Rio - Completely
DYEAR=2002
DGENRE=Country
TTITLE0=Beautiful Mess
TTITLE1=Big Ol' Fire
TTITLE2=I Believe
TTITLE3=Something Cool
TTITLE4=The Box
TTITLE5=We All Fall Down
TTITLE6=Wrinkles
TTITLE7=Completely
TTITLE8=A Better Idea
TTITLE9=If You'd Like Some Lovin'
TTITLE10=You'll Find Me
TTITLE11=Rural Philharmonic (instrumental)
TTITLE12=Make Sure You've Got It All
EXTD=YEAR: 2002
EXTT0=
EXTT1=
EXTT2=
EXTT3=
EXTT4=
EXTT5=
EXTT6=
EXTT7=
EXTT8=
EXTT9=
EXTT10=
EXTT11=
EXTT12=
PLAYORDER=
